<svg width="48" height="48" viewBox="0 0 48 48" fill="none" xmlns="http://www.w3.org/2000/svg">
<path d="M32 8C32 5.78 33.78 4 36 4C38.22 4 40 5.78 40 8C40 10.22 38.22 12 36 12C33.78 12 32 10.22 32 8ZM40 44V32H45L39.92 16.74C39.36 15.1 37.84 14 36.12 14H35.88C34.16 14 32.62 15.1 32.08 16.74L30.36 21.9C32.52 23.1 34 25.36 34 28V44H40ZM25 23C26.66 23 28 21.66 28 20C28 18.34 26.66 17 25 17C23.34 17 22 18.34 22 20C22 21.66 23.34 23 25 23ZM11 12C13.22 12 15 10.22 15 8C15 5.78 13.22 4 11 4C8.78 4 7 5.78 7 8C7 10.22 8.78 12 11 12ZM15 44V30H18V18C18 15.8 16.2 14 14 14H8C5.8 14 4 15.8 4 18V30H7V44H15ZM28 44V36H30V28C30 26.36 28.64 25 27 25H23C21.36 25 20 26.36 20 28V36H22V44H28Z" fill="#C3A864"/>
</svg>
