<svg width="44" height="33" viewBox="0 0 44 33" fill="none" xmlns="http://www.w3.org/2000/svg">
<g filter="url(#filter0_d_26_19)">
<path d="M22 0C13.8182 0 6.83091 5.08909 4 12.2727C6.83091 19.4564 13.8182 24.5455 22 24.5455C30.1818 24.5455 37.1691 19.4564 40 12.2727C37.1691 5.08909 30.1818 0 22 0ZM22 20.4545C17.4836 20.4545 13.8182 16.7891 13.8182 12.2727C13.8182 7.75636 17.4836 4.09091 22 4.09091C26.5164 4.09091 30.1818 7.75636 30.1818 12.2727C30.1818 16.7891 26.5164 20.4545 22 20.4545ZM22 7.36364C19.2836 7.36364 17.0909 9.55636 17.0909 12.2727C17.0909 14.9891 19.2836 17.1818 22 17.1818C24.7164 17.1818 26.9091 14.9891 26.9091 12.2727C26.9091 9.55636 24.7164 7.36364 22 7.36364Z" fill="white"/>
</g>
<defs>
<filter id="filter0_d_26_19" x="0" y="0" width="44" height="32.5455" filterUnits="userSpaceOnUse" color-interpolation-filters="sRGB">
<feFlood flood-opacity="0" result="BackgroundImageFix"/>
<feColorMatrix in="SourceAlpha" type="matrix" values="0 0 0 0 0 0 0 0 0 0 0 0 0 0 0 0 0 0 127 0" result="hardAlpha"/>
<feOffset dy="4"/>
<feGaussianBlur stdDeviation="2"/>
<feComposite in2="hardAlpha" operator="out"/>
<feColorMatrix type="matrix" values="0 0 0 0 0 0 0 0 0 0 0 0 0 0 0 0 0 0 0.25 0"/>
<feBlend mode="normal" in2="BackgroundImageFix" result="effect1_dropShadow_26_19"/>
<feBlend mode="normal" in="SourceGraphic" in2="effect1_dropShadow_26_19" result="shape"/>
</filter>
</defs>
</svg>
